# xmcd
#
# Track frame offsets: 
#        187
#        18152
#        31145
#        43490
#        54620
#        67367
#        80085
#        94652
#        106962
#        125175
#        137840
#        161030
#        174562
#        188225
#        201697
#        214560
#        228220
#        240782
#        254292
#        272270
#        290707
#        309132
#
# Disc length: 4383 seconds
#
# Revision: 4
# Processed by: cddbd v1.5.2PL0 Copyright (c) Steve Scherf et al.
# Submitted via: ExactAudioCopy v0.99pb5
#
DISCID=42111d16
DTITLE=Smokey Robinson and The Miracles - The Greatest Hits
DYEAR=1992
DGENRE=Blues
TTITLE0=Being With You
TTITLE1=The Tracks Of My Tears
TTITLE2=I Second That Emotion
TTITLE3=(Come 'Round Here) I'm The One You Need
TTITLE4=Mickey's Monkey
TTITLE5=Going To A Go-Go
TTITLE6=I Don't Blame You At All
TTITLE7=If You Can Want
TTITLE8=Just To See Her
TTITLE9=More Love
TTITLE10=Just My Soul Responding
TTITLE11=The Tears Of A Clown
TTITLE12=Abraham, Martin And John
TTITLE13=You've Really Got A Hold On Me
TTITLE14=Shop Around
TTITLE15=What's So Good About Goodbye
TTITLE16=Ooo Baby Baby
TTITLE17=The Love I Saw In You Was Just A Mirage
TTITLE18=Quiet Storm
TTITLE19=One Heartbeat
TTITLE20=Baby, Bay Don't Cry
TTITLE21=Cruisin'
EXTD=
EXTT0=
EXTT1=
EXTT2=
EXTT3=
EXTT4=
EXTT5=
EXTT6=
EXTT7=
EXTT8=
EXTT9=
EXTT10=
EXTT11=
EXTT12=
EXTT13=
EXTT14=
EXTT15=
EXTT16=
EXTT17=
EXTT18=
EXTT19=
EXTT20=
EXTT21=
PLAYORDER=
